<?xml version="1.0" encoding="UTF-8" standalone="no"?>
<svg width="344px" height="100px" viewBox="0 0 344 100" version="1.1" xmlns="http://www.w3.org/2000/svg" xmlns:xlink="http://www.w3.org/1999/xlink">
    <!-- Generator: Sketch 39 (31667) - http://www.bohemiancoding.com/sketch -->
    <title>Slice 1</title>
    <desc>Created with Sketch.</desc>
    <defs></defs>
    <g id="Page-1" stroke="none" stroke-width="1" fill="none" fill-rule="evenodd">
        <g id="logo_production">
            <path d="M42.8571458,1.92248062 C19.1851483,1.92248062 0,18.2713178 0,38.4341085 C0,38.9844961 0,39.5271318 0.0464156813,40.0697674 C0.0464156813,40.2713178 0.0464156813,40.4728682 0.0850954158,40.6744186 C0.0850954158,41.0077519 0.139247044,41.3333333 0.170190832,41.6589147 C0.201134619,41.9844961 0.216606513,42.1550388 0.2475503,42.4341085 C0.304280578,42.8837209 0.371325451,43.3307494 0.44868492,43.7751938 C0.905105786,34.7054264 6.63744243,26.8682171 13.4141319,21.0465116 C23.9582275,11.9767442 43.112432,3.49612403 55.5905144,14.0930233 C57.2248298,15.5097377 58.689039,17.1122507 59.9535884,18.8682171 C65.2638616,20.6594455 70.2334266,23.338074 74.6518875,26.7906977 C78.8602426,30.0930233 83.5636983,34.6356589 85.6678759,39.9147287 C85.6678759,39.4263566 85.7142915,38.9302326 85.7142915,38.4341085 C85.7142915,18.2713178 66.5291433,1.92248062 42.8571458,1.92248062 L42.8571458,1.92248062 Z" id="Shape" fill="#027DCC"></path>
            <path d="M59.7833976,65.5348837 C57.335218,65.7111672 54.8792239,65.7525732 52.4265121,65.6589147 C45.3868004,68.5658915 37.295,69.4806202 29.7292439,68.9379845 L25.9154221,71.9844961 C27.8859627,72.7054507 29.9016514,73.29587 31.9494607,73.751938 L31.9494607,73.751938 C32.6044375,73.8966408 33.2671503,74.0284238 33.937599,74.1472868 L34.0613742,74.1472868 C34.6879859,74.255814 35.3223335,74.3488372 35.9566811,74.4418605 L36.2119674,74.4418605 C36.8076353,74.5193798 37.4110392,74.5813953 38.014443,74.6434109 L38.3935044,74.6821705 C38.9737004,74.7286822 39.5616324,74.7674419 40.1495644,74.7984496 L40.5982493,74.7984496 C41.371844,74.7984496 42.0758151,74.8527132 42.826202,74.8527132 C43.5765888,74.8527132 44.141313,74.8527132 44.7911325,74.8062016 L45.3403847,74.8062016 C45.8561145,74.8062016 46.3718443,74.7726098 46.8875741,74.7054264 L47.3053152,74.7054264 C47.924191,74.6485788 48.5379094,74.5813953 49.1464706,74.503876 L49.7421385,74.4186047 L51.0417776,74.2170543 L51.6993331,74.1085271 C52.2614785,74.0103359 52.8184667,73.9018088 53.3702976,73.7829457 L54.0665328,73.620155 L55.1186216,73.3643411 L55.9618398,73.1395349 L56.8746815,72.875969 C57.3697821,72.7286822 57.8648827,72.5736434 58.3522474,72.4108527 L59.0794264,72.1705426 L60.0696276,71.8062016 L60.6420877,71.5891473 C61.7818505,71.1447028 62.8932482,70.6589147 63.9762808,70.1317829 L64.3708141,69.9379845 C64.7266676,69.7596899 65.0825212,69.5813953 65.4306388,69.3953488 L59.7833976,65.5348837 Z" id="Shape" fill="#027DCC"></path>
            <path d="M83.5327545,46.5116279 C83.757097,37.0155039 76.0675658,29.5581395 68.6874724,24.8062016 C68.1304843,24.4444444 67.5554455,24.0878553 66.9623563,23.7364341 L66.9623563,23.7364341 C65.1320606,22.6336796 63.2386438,21.6397164 61.2919072,20.7596899 C69.8478645,34.2713178 70.6678748,56.0930233 55.7993849,64.0620155 C55.2578686,64.3488372 54.7008805,64.627907 54.1438923,64.8914729 L54.1438923,64.8914729 L56.5729796,64.8914729 L56.5729796,64.8914729 C57.3465743,64.8914729 58.1588487,64.8527132 58.8937637,64.8062016 C62.0809738,64.627907 63.3032534,65.744186 66.0030989,67.5968992 L67.2099066,68.4263566 L67.4884007,68.2635659 L67.2176425,68.4341085 L67.2176425,68.4341085 L77.0190872,75.1937984 L72.6560132,64.6821705 L72.6560132,64.6821705 L72.4471426,64.8449612 L72.6560132,64.6744186 L72.1918564,63.5658915 C72.2264468,63.5295158 72.2733488,63.5073986 72.3233675,63.503876 L72.246008,63.503876 C77.6534349,59.875969 83.3780356,53.4186047 83.5327545,46.5116279 L83.5327545,46.5116279 Z" id="Shape" fill="#282C2D"></path>
            <path d="M49.2238301,13 C39.468801,7.25581395 27.679218,13.3643411 19.7730803,19.8449612 C12.1763804,26.0465116 3.89891723,35.4418605 5.11346089,46.1395349 C6.01856668,54.0852713 10.5286237,61.4573643 16.8024766,66.2945736 L16.756061,66.2945736 C16.8411564,66.3410853 16.895308,66.379845 16.8875721,66.4108527 L12.5167621,78.7364341 L23.2310485,70.1472868 C26.0469332,67.875969 27.4471396,67.8217054 30.8973719,67.8992248 C45.5105756,68.3410853 62.1273895,62.0155039 62.5064509,44.7674419 C62.7462652,33.9224806 59.2264094,18.8837209 49.2238301,13 L49.2238301,13 Z M24.9948444,22.4806202 C24.9948444,22.4806202 34.0149585,12.5891473 45.5415193,17.7209302 C57.9654501,23.255814 59.0639545,43.0542636 59.0639545,43.0542636 C45.7117102,10.7829457 24.9948444,22.4806202 24.9948444,22.4806202 L24.9948444,22.4806202 Z" id="Shape" fill="#282C2D"></path>
            <polygon id="Shape" fill="#282C2D" points="101.193921 0 119.063959 0 141.01084 62.2170543 141.235182 62.2170543 162.61734 0 180.928326 0 180.928326 76.255814 168.13307 76.255814 168.13307 10.9379845 167.908727 10.9379845 145.520897 76.248062 134.497173 76.248062 112.109342 12.4883721 111.892736 12.4883721 111.892736 76.248062 101.193921 76.248062"></polygon>
            <polygon id="Shape" fill="#282C2D" points="203.30842 77.0310078 183.674587 23.6511628 197.351741 23.6511628 209.257363 59.5658915 209.481706 59.5658915 221.72771 23.6511628 232.558035 23.6511628 206.309968 99.9069767 195.479642 99.9069767"></polygon>
            <path d="M235.072218,0 L256.361544,0 C269.033025,0 281.975264,2.87596899 281.975264,18.0155039 C281.975264,28.8682171 274.587435,33.8217054 268.630756,35.4728682 L268.630756,35.6589147 C276.459534,37.3178295 285.835502,41.4031008 285.835502,55.3255814 C285.835502,74.8837209 267.965464,76.2093023 256.392488,76.2093023 L235.072218,76.2093023 L235.072218,0 L235.072218,0 Z M249.484287,31.496124 L252.462627,31.496124 C260.291405,31.496124 267.462628,30.1705426 267.462628,19.7829457 C267.462628,9.8372093 261.730291,8.06976744 252.462627,8.06976744 L249.484287,8.06976744 L249.484287,31.496124 L249.484287,31.496124 Z M249.484287,67.0852713 L252.462627,67.0852713 C261.946898,67.0852713 271.322865,65.9767442 271.322865,53.7131783 C271.353809,43.3178295 264.956181,39.5348837 252.493571,39.5348837 L249.484287,39.5348837 L249.484287,67.0542636 L249.484287,67.0852713 Z" id="Shape" fill="#282C2D"></path>
            <path d="M292.960309,0 L314.241899,0 C326.928852,0 339.832411,2.87596899 339.832411,18.0155039 C339.832411,28.8682171 332.444582,33.8217054 326.487903,35.4728682 L326.487903,35.6589147 C334.316681,37.3178295 343.692648,41.4031008 343.692648,55.3255814 C343.692648,74.8837209 325.822611,76.2093023 314.241899,76.2093023 L292.960309,76.2093023 L292.960309,0 L292.960309,0 Z M307.411058,31.496124 L310.389397,31.496124 C318.218175,31.496124 325.389398,30.1705426 325.389398,19.7829457 C325.389398,9.8372093 319.657061,8.06976744 310.389397,8.06976744 L307.411058,8.06976744 L307.411058,31.496124 L307.411058,31.496124 Z M307.411058,67.0852713 L310.389397,67.0852713 C319.873668,67.0852713 329.249636,65.9767442 329.249636,53.7131783 C329.249636,43.3255814 322.852008,39.5658915 310.389397,39.5658915 L307.411058,39.5658915 L307.411058,67.0852713 L307.411058,67.0852713 Z" id="Shape" fill="#282C2D"></path>
        </g>
    </g>
</svg>